<?xml version="1.0" standalone="no"?>
<!DOCTYPE svg PUBLIC "-//W3C//DTD SVG 20010904//EN"
 "http://www.w3.org/TR/2001/REC-SVG-20010904/DTD/svg10.dtd">
<svg version="1.0" xmlns="http://www.w3.org/2000/svg"
 width="81.000000pt" height="81.000000pt" viewBox="0 0 81.000000 81.000000"
 preserveAspectRatio="xMidYMid meet">
<metadata>
Created by potrace 1.11, written by Peter Selinger 2001-2013
</metadata>
<g transform="translate(0.000000,81.000000) scale(0.100000,-0.100000)"
fill="#000000" stroke="none">
<path d="M188 794 c-60 -18 -127 -86 -149 -150 -16 -47 -17 -133 -1 -158 6
-10 8 -15 11 -34 2 -16 71 -81 102 -97 53 -28 116 -36 174 -22 25 6 27 5 11
-4 -70 -43 -105 -133 -81 -210 12 -36 54 -87 85 -102 31 -16 123 -16 160 0 80
35 118 150 77 232 -11 23 -11 28 0 28 7 0 13 -3 13 -7 0 -3 21 -5 46 -4 91 6
154 73 154 164 0 133 -165 206 -260 115 l-26 -25 0 50 c1 27 -2 50 -6 50 -5 0
-8 8 -8 18 0 22 -29 69 -66 105 -56 56 -150 76 -236 51z m286 -371 c-1 -15 4
-39 12 -54 19 -37 18 -40 -10 -29 -13 5 -42 7 -65 6 -23 -2 -41 0 -41 4 0 8
20 18 32 16 4 0 22 18 40 42 18 23 33 42 34 42 1 0 0 -12 -2 -27z"/>
</g>
</svg>
